<?xml version="1.0" encoding="utf-8"?>
<!-- Generator: Adobe Illustrator 23.0.3, SVG Export Plug-In . SVG Version: 6.00 Build 0)  -->
<svg version="1.1" id="Icons" xmlns="http://www.w3.org/2000/svg" xmlns:xlink="http://www.w3.org/1999/xlink" x="0px" y="0px"
	 viewBox="0 0 32 32" style="enable-background:new 0 0 32 32;" xml:space="preserve">
<style type="text/css">
	.st0{fill:none;stroke:#000000;stroke-width:2;stroke-linecap:round;stroke-linejoin:round;stroke-miterlimit:10;}
</style>
<path d="M16,2c-5,0-9,4-9,8.9c0,7.4,8,13.7,8.4,13.9c0.2,0.1,0.4,0.2,0.6,0.2s0.4-0.1,0.6-0.2C17,24.5,25,18.3,25,10.9
	C25,6,21,2,16,2z M16,14c-1.7,0-3-1.3-3-3s1.3-3,3-3s3,1.3,3,3S17.7,14,16,14z"/>
<path d="M29.9,28.6l-4-8C25.7,20.2,25.4,20,25,20h-1.2c-2.4,3.6-5.4,6-6,6.4C17.3,26.8,16.7,27,16,27s-1.3-0.2-1.8-0.6
	c-0.5-0.4-3.6-2.8-6-6.4H7c-0.4,0-0.7,0.2-0.9,0.6l-4,8c-0.2,0.3-0.1,0.7,0,1S2.7,30,3,30h26c0.3,0,0.7-0.2,0.9-0.5
	S30,28.9,29.9,28.6z"/>
</svg>
